<svg xmlns="http://www.w3.org/2000/svg" viewBox="69 282 750 230">
  <switch>
    <g>
      <path d="M 121.85 318.5 C 119.283 318.5 116.083 318.85 112.25 319.55 C 108.717 320.417 105.133 321.933 101.5 324.1 C 97.967 326.567 94.883 330.15 92.25 334.85 C 89.883 339.683 88.6 346.217 88.4 354.45 L 88.4 371.7 C 88.4 377 87.567 381.167 85.9 384.2 C 84.133 387.267 82.067 389.483 79.7 390.85 C 77.433 392.417 75.467 393.35 73.8 393.65 C 72.133 394.25 71.2 394.45 71 394.25 L 71 411.9 C 71.2 411.9 72.133 412.1 73.8 412.5 C 75.467 413 77.433 413.933 79.7 415.3 C 82.067 416.867 84.133 419.083 85.9 421.95 C 87.567 425.083 88.4 429.2 88.4 434.3 L 88.4 454.05 C 88.6 462.317 89.883 468.8 92.25 473.5 C 94.883 478.3 97.967 481.933 101.5 484.4 C 105.133 486.767 108.717 488.383 112.25 489.25 C 116.083 489.95 119.283 490.3 121.85 490.3 C 123.217 490.3 124.35 490.2 125.25 490 L 126.4 489.7 L 126.4 474.55 L 123.6 474.55 C 121.933 474.55 119.733 474.15 117 473.35 C 114.233 472.483 111.717 470.417 109.45 467.15 C 107.317 464.117 106.15 459.4 105.95 453 L 105.95 429.15 C 105.95 424.05 105.067 419.783 103.3 416.35 C 101.633 412.917 99.767 410.267 97.7 408.4 C 95.433 406.333 93.567 404.95 92.1 404.25 L 89.45 403.2 L 89.45 402.65 L 92.1 401.75 C 93.567 400.85 95.433 399.383 97.7 397.35 C 99.767 395.483 101.633 392.817 103.3 389.35 C 105.067 385.917 105.95 381.7 105.95 376.7 L 105.95 355.5 C 106.15 349 107.317 344.183 109.45 341.05 C 111.717 338.017 114.233 336.05 117 335.15 C 119.733 334.283 121.933 333.85 123.6 333.85 L 126.4 333.85 L 126.4 318.8 L 125.25 318.8 C 124.35 318.6 123.217 318.5 121.85 318.5 M 313.25 320 C 315.22 316.362 317.287 312.777 319.45 309.25 C 319.65 308.95 319.7 308.65 319.6 308.35 C 319.5 307.95 319.35 307.65 319.15 307.45 L 319 307.3 C 313.9 303.1 308.683 299.467 303.35 296.4 C 299.45 294.067 295.533 292.1 291.6 290.5 C 276.267 284.633 259.85 283.467 242.35 287 C 242.083 287.1 241.9 287.25 241.8 287.45 C 241.5 287.517 241.35 287.7 241.35 288 C 238.817 294.367 236.583 301.033 234.65 308 C 233.65 311.567 232.733 315.217 231.9 318.95 L 232.05 318.95 L 230 327.2 C 229.9 327.3 229.85 327.45 229.85 327.65 C 227.749 336.967 225.981 346.357 224.55 355.8 C 224.15 358.533 223.75 361.283 223.35 364.05 C 223.083 366.017 222.85 368.033 222.65 370.1 L 221.3 370.1 C 221.2 370.1 221.1 370.15 221 370.25 C 219.433 370.517 217.817 370.65 216.15 370.65 L 216 370.65 C 204.2 372.15 198.217 374.9 198.05 378.9 C 197.35 383.133 202.75 386.967 214.25 390.4 C 214.917 390.6 215.7 390.8 216.6 391 L 217.5 391.3 C 218.467 391.5 219.583 391.75 220.85 392.05 C 220.55 395.583 220.317 399.167 220.15 402.8 C 220.15 403.767 220.1 404.8 220 405.9 C 218.5 406.467 217.167 407.55 216 409.15 C 215.233 409.873 214.591 410.718 214.1 411.65 L 209.65 410.15 L 207.75 415.75 L 212.15 417.25 C 212.05 417.817 212 418.45 212 419.15 C 211.833 422.883 212.817 426.167 214.95 429 C 216.35 430.967 217.983 432.3 219.85 433 C 219.85 434.767 219.9 436.583 220 438.45 C 219.7 438.35 219.45 438.3 219.25 438.3 C 218.35 438.1 217.567 438 216.9 438 L 216.45 438 C 211.717 437.9 208.083 439.417 205.55 442.55 L 205.4 442.55 C 204.5 443.75 203.667 445.183 202.9 446.85 L 202.9 447 C 202.6 447.967 202 449.383 201.1 451.25 C 199.733 454.317 198.117 456.433 196.25 457.6 C 196.15 457.6 196.1 457.65 196.1 457.75 C 194.633 458.25 193.267 458.55 192 458.65 L 191.85 458.65 C 189.483 458.817 187.567 458.017 186.1 456.25 C 184.133 453.917 182.65 450.683 181.65 446.55 C 180.683 442.317 180.783 439.067 181.95 436.8 C 183.35 434.167 184.783 432.65 186.25 432.25 C 187.517 431.95 188.983 432.733 190.65 434.6 L 190.8 434.75 C 191.7 435.65 192.15 437.367 192.15 439.9 C 192.15 441.4 191.95 442.833 191.55 444.2 C 191.35 444.6 191.35 444.983 191.55 445.35 C 191.75 445.65 192.05 445.9 192.45 446.1 C 192.817 446.2 193.2 446.15 193.6 445.95 C 193.9 445.75 194.15 445.467 194.35 445.1 C 194.85 443.4 195.1 441.667 195.1 439.9 C 195.1 436.267 194.35 433.867 192.85 432.7 L 192.7 432.55 C 190.167 429.817 187.767 428.733 185.5 429.3 C 183.233 429.7 181.167 431.767 179.3 435.5 C 177.733 438.233 177.583 442.167 178.85 447.3 C 179.95 451.9 181.633 455.533 183.9 458.2 C 186.033 460.733 188.783 461.867 192.15 461.6 C 193.817 461.5 195.583 461.05 197.45 460.25 L 197.6 460.25 C 199.933 458.783 201.983 456.183 203.75 452.45 C 204.65 450.583 205.25 449.15 205.55 448.15 C 206.217 446.683 206.95 445.467 207.75 444.5 L 207.75 444.35 C 209.817 441.983 212.717 440.85 216.45 440.95 L 216.9 440.95 C 217.467 440.95 218.1 441.05 218.8 441.25 L 219.1 441.25 C 219.2 441.25 219.3 441.3 219.4 441.4 L 220.15 441.4 C 220.417 448.167 220.85 454.983 221.45 461.85 L 210.85 460.7 C 210.45 460.7 210.15 460.8 209.95 461 C 209.55 461.2 209.35 461.483 209.35 461.85 C 209.183 462.15 209.183 462.5 209.35 462.9 L 213.95 471.75 L 188 500.2 L 167.1 439.35 C 167 439.25 166.95 439.15 166.95 439.05 L 162.65 425.9 C 162.55 425.733 162.4 425.55 162.2 425.35 C 162.033 425.15 161.85 425.05 161.65 425.05 C 156.15 423.283 152.367 424.75 150.3 429.45 C 150.1 429.75 150.1 430.1 150.3 430.5 L 154.85 444.05 C 154.85 444.15 154.9 444.25 155 444.35 L 174.1 499.05 L 174.15 499.15 C 175.25 499.517 176.383 499.817 177.55 500.05 C 177.917 500.117 178.3 500.183 178.7 500.25 C 179.7 500.417 180.75 500.533 181.85 500.6 L 182.4 500.6 L 160.75 440.5 C 161.717 440.1 162.95 440.25 164.45 440.95 L 185.05 500.6 L 191.7 500.6 L 213.5 476.9 L 204.05 500.6 L 244.15 500.6 L 244.15 492.65 L 259.3 496.05 C 259.6 496.15 259.9 496.15 260.2 496.05 C 260.5 495.85 260.75 495.65 260.95 495.45 C 261.05 495.15 261.1 494.867 261.1 494.6 C 261 487.7 261.1 480.667 261.4 473.5 C 261.4 473.1 261.3 472.817 261.1 472.65 C 260.9 472.35 260.65 472.15 260.35 472.05 C 260.05 471.85 259.75 471.85 259.45 472.05 L 243.7 477.2 L 243.7 447.45 C 257.167 440.283 266.45 439.05 271.55 443.75 C 272.35 444.817 273.183 446.05 274.05 447.45 C 274.05 447.55 274.1 447.6 274.2 447.6 C 274.5 448.467 275.083 449.833 275.95 451.7 L 276.1 451.7 C 276.3 452.2 276.55 452.65 276.85 453.05 C 276.65 457.85 276.55 462.65 276.55 467.45 C 276.55 467.85 276.7 468.2 277 468.5 C 277.3 468.8 277.65 468.95 278.05 468.95 L 288.35 468.95 L 279.5 480.3 C 279.3 480.6 279.2 480.883 279.2 481.15 C 279.2 481.55 279.3 481.9 279.5 482.2 L 285.85 489.85 C 286.05 489.55 286.25 489.267 286.45 489 C 286.617 488.7 286.8 488.4 287 488.1 L 287.6 487.2 L 287.55 487.15 L 282.6 481.15 L 292.45 468.35 C 292.65 468.05 292.75 467.7 292.75 467.3 C 292.75 466.933 292.6 466.65 292.3 466.45 C 292.033 466.15 291.7 466 291.3 466 L 279.5 466 C 279.5 462.867 279.55 459.717 279.65 456.55 C 280.717 457.65 281.85 458.433 283.05 458.9 C 284.817 459.8 286.783 460.2 288.95 460.1 L 289.1 460.1 C 292.333 460.3 295.217 459.117 297.75 456.55 L 297.9 456.55 C 300.267 453.817 302.133 450.033 303.5 445.2 L 303.5 445.1 C 304.6 440.067 304.267 436.183 302.5 433.45 C 300.433 429.817 298.217 427.85 295.85 427.55 C 293.383 426.95 290.783 428.083 288.05 430.95 C 286.483 432.417 285.7 434.967 285.7 438.6 C 285.7 440.267 285.85 441.933 286.15 443.6 C 286.25 444 286.483 444.3 286.85 444.5 C 287.15 444.8 287.5 444.9 287.9 444.8 C 288.3 444.7 288.6 444.5 288.8 444.2 C 289.1 443.8 289.2 443.4 289.1 443 C 288.8 441.533 288.65 440.067 288.65 438.6 C 288.65 435.933 289.133 434.067 290.1 433 C 291.967 431.133 293.683 430.3 295.25 430.5 C 296.917 430.9 298.5 432.367 300 434.9 C 301.267 437.267 301.45 440.467 300.55 444.5 L 300.7 444.5 C 299.433 448.7 297.767 452.033 295.7 454.5 L 295.7 454.65 C 293.733 456.517 291.533 457.35 289.1 457.15 L 288.95 457.15 C 287.283 457.25 285.75 456.95 284.35 456.25 L 284.2 456.25 C 282.633 455.483 281.167 454.167 279.8 452.3 C 280.5 436.2 282.217 420.333 284.95 404.7 C 285.05 404.1 285.15 403.567 285.25 403.1 C 285.55 401.433 285.9 399.85 286.3 398.35 L 286.3 398.2 C 288.433 398.2 290.35 398.017 292.05 397.65 C 303.617 396.55 309.5 393.933 309.7 389.8 L 309.7 389.7 C 310.5 385.767 305.15 381.883 293.65 378.05 L 293.5 377.9 C 292.9 377.8 292.217 377.65 291.45 377.45 C 291.25 377.35 291.05 377.3 290.85 377.3 C 291.65 374.367 292.433 371.567 293.2 368.9 L 293.35 368.75 C 293.85 367.283 294.3 365.917 294.7 364.65 C 296.667 357.95 298.867 351.567 301.3 345.5 L 301.4 345.3 C 304.333 337.6 307.6 330.333 311.2 323.5 L 313.25 320 M 301.9 298.9 L 302.05 298.9 C 297.95 308.067 294.15 317.317 290.65 326.65 C 286.585 337.412 282.916 348.319 279.65 359.35 C 276.156 357.665 272.505 356.325 268.75 355.35 C 272.411 341.468 276.783 327.783 281.85 314.35 C 284.513 307.259 287.364 300.24 290.4 293.3 L 290.55 293.3 C 294.383 294.8 298.167 296.667 301.9 298.9 M 255.2 370.8 L 254.15 370.8 L 230.45 369.95 C 228.783 369.95 227.167 370 225.6 370.1 C 225.767 368.233 226 366.367 226.3 364.5 C 226.6 362.133 226.95 359.767 227.35 357.4 C 241.683 354.167 255.183 354.417 267.85 358.15 C 271.551 359.142 275.151 360.481 278.6 362.15 C 280.787 363.227 282.954 364.344 285.1 365.5 C 286.667 366.5 288.383 367.583 290.25 368.75 C 289.483 371.217 288.75 373.767 288.05 376.4 C 287.55 376.3 287.067 376.2 286.6 376.1 L 286.15 376.1 C 277.117 373.767 266.8 372 255.2 370.8 M 283.05 390.4 C 283.617 390.6 284.2 390.8 284.8 391 C 284.293 392.798 283.859 394.616 283.5 396.45 L 283.5 396.9 C 283.4 397.2 283.35 397.55 283.35 397.95 C 282.95 399.417 282.6 400.983 282.3 402.65 C 282.2 403.15 282.1 403.683 282 404.25 C 279.531 418.441 277.911 432.766 277.15 447.15 C 276.95 446.85 276.8 446.55 276.7 446.25 L 276.7 446.1 C 275.733 444.533 274.8 443.167 273.9 442 C 273.9 441.9 273.85 441.85 273.75 441.85 C 267.75 435.45 256.9 436.617 241.2 445.35 C 240.133 445.85 238.8 446.05 237.2 445.95 L 240.6 430.05 L 240.6 429.75 L 249.3 384.5 L 251.05 384.5 C 251.45 384.6 251.85 384.65 252.25 384.65 L 253.45 384.65 L 283.05 390.4 M 235 400.85 C 234.5 400.683 234.167 400.3 234 399.7 C 232.5 397.633 231.017 396.45 229.55 396.15 L 229.25 396.15 C 227.983 396.15 226.667 396.55 225.3 397.35 C 224.7 397.55 224.2 397.6 223.8 397.5 C 223.233 397.3 222.85 397 222.65 396.6 C 222.45 396.1 222.45 395.567 222.65 395 C 222.75 394.6 222.983 394.3 223.35 394.1 C 225.517 393.1 227.483 392.6 229.25 392.6 L 229.85 392.6 C 232.683 392.8 235.033 394.583 236.9 397.95 C 237.3 398.317 237.35 398.8 237.05 399.4 C 236.95 399.7 236.717 400.1 236.35 400.6 C 235.85 400.867 235.4 400.95 235 400.85 M 235.75 447.6 C 235.35 447.7 234.95 447.65 234.55 447.45 C 232.383 446.15 230.283 445.067 228.25 444.2 C 226.85 443.5 225.617 443 224.55 442.7 C 224.05 442.5 223.65 442.367 223.35 442.3 L 223.2 442.3 C 222.733 442.1 222.3 441.95 221.9 441.85 L 220.7 441.55 L 220.55 441.55 C 220.45 441.45 220.35 441.4 220.25 441.4 L 220.15 438.45 L 220.25 438.45 C 220.55 438.45 220.95 438.55 221.45 438.75 L 222.65 439.05 L 222.5 438.9 C 223.067 439 223.65 439.2 224.25 439.5 C 224.617 439.533 225.067 439.667 225.6 439.9 L 225.45 439.9 C 226.717 440.3 228.083 440.85 229.55 441.55 L 229.4 441.55 C 231.467 442.417 233.683 443.55 236.05 444.95 C 236.35 445.117 236.6 445.4 236.8 445.8 C 236.867 446.1 236.817 446.45 236.65 446.85 C 236.35 447.15 236.05 447.4 235.75 447.6 M 224.25 407.8 C 226.617 407.8 228.633 408.833 230.3 410.9 C 231.967 413.167 232.75 415.917 232.65 419.15 C 232.45 422.183 231.417 424.883 229.55 427.25 L 229.7 427.25 C 227.733 429.417 225.517 430.5 223.05 430.5 C 221.883 430.5 220.817 430.2 219.85 429.6 C 218.85 429 218.017 428.217 217.35 427.25 C 215.583 424.983 214.783 422.333 214.95 419.3 L 214.95 419.15 C 214.95 417.883 215.2 416.65 215.7 415.45 C 215.7 415.35 215.75 415.3 215.85 415.3 C 216.25 413.733 217.033 412.317 218.2 411.05 C 218.7 410.35 219.25 409.8 219.85 409.4 C 221.217 408.333 222.683 407.8 224.25 407.8 M 153.25 430.2 C 154.617 427.633 156.867 426.75 160 427.55 L 163.25 437.4 C 161.883 437.1 160.7 437.2 159.7 437.7 L 159.55 437.7 C 158.383 438.2 157.417 438.983 156.65 440.05 L 153.25 430.2 M 227.35 474.25 L 227.95 474.25 L 241.65 480.3 C 241.95 480.4 242.283 480.45 242.65 480.45 C 242.95 480.55 243.25 480.55 243.55 480.45 L 258.45 475.45 C 258.15 481.317 258.05 487.1 258.15 492.8 L 242.95 489.3 C 242.55 489.2 242.217 489.283 241.95 489.55 C 241.85 489.55 241.75 489.6 241.65 489.7 L 227.35 494.15 L 227.35 474.25 M 253.3 428.85 C 257.3 421.85 259.567 415.883 260.1 410.95 C 260.133 410.517 260.033 410.15 259.8 409.85 C 259.555 409.53 259.198 409.316 258.8 409.25 C 258.367 409.217 258 409.333 257.7 409.6 C 257.367 409.833 257.167 410.167 257.1 410.6 C 256.5 415.7 253.933 422.033 249.4 429.6 C 249.2 429.9 249.133 430.233 249.2 430.6 C 249.233 430.967 249.4 431.267 249.7 431.5 C 249.967 431.733 250.283 431.85 250.65 431.85 L 262.1 431.85 C 262.5 431.85 262.85 431.7 263.15 431.4 C 263.45 431.1 263.6 430.75 263.6 430.35 C 263.6 429.95 263.45 429.6 263.15 429.3 C 262.85 429 262.5 428.85 262.1 428.85 L 253.3 428.85 M 255.15 396.3 C 254.783 396.467 254.533 396.75 254.4 397.15 C 254.233 397.55 254.25 397.933 254.45 398.3 C 254.617 398.667 254.9 398.933 255.3 399.1 C 255.7 399.233 256.083 399.2 256.45 399 C 260.383 397.1 263.6 397.7 266.1 400.8 C 266.333 401.1 266.667 401.283 267.1 401.35 C 267.5 401.383 267.867 401.283 268.2 401.05 C 268.5 400.783 268.683 400.45 268.75 400.05 C 268.783 399.617 268.683 399.25 268.45 398.95 C 265.05 394.55 260.617 393.667 255.15 396.3 M 335.9 319.55 C 332.267 318.85 329.083 318.5 326.35 318.5 C 324.983 318.5 323.85 318.6 322.95 318.8 L 321.8 318.8 L 321.8 333.85 L 324.6 333.85 C 326.467 333.85 328.767 334.283 331.5 335.15 C 334.267 336.05 336.767 338.017 339 341.05 C 340.967 344.183 342.05 349 342.25 355.5 L 342.25 376.7 C 342.45 381.7 343.333 385.917 344.9 389.35 C 346.567 392.817 348.533 395.483 350.8 397.35 C 352.867 399.383 354.733 400.85 356.4 401.75 C 357.967 402.35 358.8 402.65 358.9 402.65 L 358.9 403.2 C 358.8 403.2 357.967 403.55 356.4 404.25 C 354.733 404.95 352.867 406.333 350.8 408.4 C 348.533 410.267 346.567 412.917 344.9 416.35 C 343.333 419.783 342.45 424.05 342.25 429.15 L 342.25 453 C 342.05 459.4 340.967 464.117 339 467.15 C 336.767 470.417 334.267 472.483 331.5 473.35 C 328.767 474.15 326.467 474.55 324.6 474.55 L 321.8 474.55 L 321.8 489.7 L 322.95 490 C 323.85 490.2 324.983 490.3 326.35 490.3 C 329.083 490.3 332.267 489.95 335.9 489.25 C 339.633 488.383 343.317 486.767 346.95 484.4 C 350.517 481.933 353.517 478.3 355.95 473.5 C 358.517 468.8 359.8 462.317 359.8 454.05 L 359.8 434.3 C 359.8 429.2 360.733 425.083 362.6 421.95 C 364.267 419.083 366.233 416.867 368.5 415.3 C 370.733 413.933 372.783 413 374.65 412.5 L 377.2 411.9 L 377.2 394.25 C 377.2 394.45 376.35 394.25 374.65 393.65 C 372.783 393.35 370.733 392.417 368.5 390.85 C 366.233 389.483 364.267 387.267 362.6 384.2 C 360.733 381.167 359.8 377 359.8 371.7 L 359.8 354.45 C 359.8 346.217 358.517 339.683 355.95 334.85 C 353.517 330.15 350.517 326.567 346.95 324.1 C 343.317 321.933 339.633 320.417 335.9 319.55" fill="#595959"/>
      <path d="M191.7 500.6h12.35l9.45-23.7-21.8 23.7m109.7-155.3l-.1.2c-2.433 6.067-4.633 12.45-6.6 19.15-.4 1.267-.85 2.633-1.35 4.1l-.15.15a635.523 635.523 0 00-2.35 8.4c.2 0 .4.05.6.15.767.2 1.45.35 2.05.45l.15.15c11.5 3.833 16.85 7.717 16.05 11.65v.1c-.2 4.133-6.083 6.75-17.65 7.85-1.7.367-3.617.55-5.75.55v.15c-.4 1.5-.75 3.083-1.05 4.75-.1.467-.2 1-.3 1.6a369.254 369.254 0 00-5.15 47.6c1.367 1.867 2.833 3.183 4.4 3.95h.15c1.4.7 2.933 1 4.6.9h.15c2.433.2 4.633-.633 6.6-2.5v-.15c2.067-2.467 3.733-5.8 5-10h-.15c.9-4.033.717-7.233-.55-9.6-1.5-2.533-3.083-4-4.75-4.4-1.567-.2-3.283.633-5.15 2.5-.967 1.067-1.45 2.933-1.45 5.6 0 1.467.15 2.933.45 4.4.1.4 0 .8-.3 1.2-.2.3-.5.5-.9.6-.4.1-.75 0-1.05-.3-.367-.2-.6-.5-.7-.9-.3-1.667-.45-3.333-.45-5 0-3.633.783-6.183 2.35-7.65 2.733-2.867 5.333-4 7.8-3.4 2.367.3 4.583 2.267 6.65 5.9 1.767 2.733 2.1 6.617 1 11.65v.1c-1.367 4.833-3.233 8.617-5.6 11.35h-.15c-2.533 2.567-5.417 3.75-8.65 3.55h-.15c-2.167.1-4.133-.3-5.9-1.2-1.2-.467-2.333-1.25-3.4-2.35-.1 3.167-.15 6.317-.15 9.45h11.8c.4 0 .733.15 1 .45.3.2.45.483.45.85 0 .4-.1.75-.3 1.05l-9.85 12.8 4.95 6 40.55-70.2c2.267-3.933 3.35-8.117 3.25-12.55.1-4.6-.933-8.767-3.1-12.5l-26.85-46.6m-69.5-26.35c.833-3.733 1.75-7.383 2.75-10.95l-51.5-.1c-4.533.1-8.717 1.183-12.55 3.25-3.933 2.167-6.967 5.2-9.1 9.1l-41.15 71.35c-2.433 3.833-3.6 8-3.5 12.5-.1 4.433 1.067 8.617 3.5 12.55l41 71.3c2.233 3.833 5.217 6.917 8.95 9.25 1.233.733 2.5 1.35 3.8 1.85l-19.1-54.7c-.1-.1-.15-.2-.15-.3l-4.55-13.55c-.2-.4-.2-.75 0-1.05 2.067-4.7 5.85-6.167 11.35-4.4.2 0 .383.1.55.3.2.2.35.383.45.55l4.3 13.15c0 .1.05.2.15.3L188 500.2l25.95-28.45-4.6-8.85c-.167-.4-.167-.75 0-1.05 0-.367.2-.65.6-.85.2-.2.5-.3.9-.3l10.6 1.15a429.41 429.41 0 01-1.3-20.45h-.75c-.1-.1-.2-.15-.3-.15h-.3c-.7-.2-1.333-.3-1.9-.3h-.45c-3.733-.1-6.633 1.033-8.7 3.4v.15c-.8.967-1.533 2.183-2.2 3.65-.3 1-.9 2.433-1.8 4.3-1.767 3.733-3.817 6.333-6.15 7.8h-.15c-1.867.8-3.633 1.25-5.3 1.35-3.367.267-6.117-.867-8.25-3.4-2.267-2.667-3.95-6.3-5.05-10.9-1.267-5.133-1.117-9.067.45-11.8 1.867-3.733 3.933-5.8 6.2-6.2 2.267-.567 4.667.517 7.2 3.25l.15.15c1.5 1.167 2.25 3.567 2.25 7.2 0 1.767-.25 3.5-.75 5.2-.2.367-.45.65-.75.85-.4.2-.783.25-1.15.15-.4-.2-.7-.45-.9-.75-.2-.367-.2-.75 0-1.15.4-1.367.6-2.8.6-4.3 0-2.533-.45-4.25-1.35-5.15l-.15-.15c-1.667-1.867-3.133-2.65-4.4-2.35-1.467.4-2.9 1.917-4.3 4.55-1.167 2.267-1.267 5.517-.3 9.75 1 4.133 2.483 7.367 4.45 9.7 1.467 1.767 3.383 2.567 5.75 2.4h.15c1.267-.1 2.633-.4 4.1-.9 0-.1.05-.15.15-.15 1.867-1.167 3.483-3.283 4.85-6.35.9-1.867 1.5-3.283 1.8-4.25v-.15c.767-1.667 1.6-3.1 2.5-4.3h.15c2.533-3.133 6.167-4.65 10.9-4.55h.45c.667 0 1.45.1 2.35.3.2 0 .45.05.75.15-.1-1.867-.15-3.683-.15-5.45-1.867-.7-3.5-2.033-4.9-4-2.133-2.833-3.117-6.117-2.95-9.85 0-.7.05-1.333.15-1.9l-4.4-1.5 1.9-5.6 4.45 1.5a9.57 9.57 0 011.9-2.5c1.167-1.6 2.5-2.683 4-3.25.1-1.1.15-2.133.15-3.1.167-3.633.4-7.217.7-10.75-1.267-.3-2.383-.55-3.35-.75l-.9-.3c-.9-.2-1.683-.4-2.35-.6-11.5-3.433-16.9-7.267-16.2-11.5.167-4 6.15-6.75 17.95-8.25h.15c1.667 0 3.283-.133 4.85-.4.1-.1.2-.15.3-.15h1.35c.2-2.067.433-4.083.7-6.05.4-2.767.8-5.517 1.2-8.25a401.03 401.03 0 015.3-28.15c0-.2.05-.35.15-.45l2.05-8.25h-.15m-61.15 41.55l-8.55.15 7.4-6.2-2.95-14 10.75 8.25 10.3-8.65-5 11.9 10.6 7.8-14.3.45-5.45 12.4-2.8-12.1m-32.25 30.8l-2.05-6.05 4.85 3.7 6.5-5.3-2.1 8.25 7.4 5.15h-8.7l-1.6 5.45-1.95-5.45h-10l7.65-5.75m46.4 5.9l-3.95 7.35 6.15 5.15h-8.95l-6.05 11.05V409.7h-9.9l9.9-5.45v-7.2l5.15 4.55 7.65-4.4z" fill="#dedede"/>
      <path d="M164.45 440.95c-1.5-.7-2.733-.85-3.7-.45l21.65 60.1h2.65l-20.6-59.65m95.9 31.1c.3.1.55.3.75.6.2.167.3.45.3.85-.3 7.167-.4 14.2-.3 21.1 0 .267-.05.55-.15.85-.2.2-.45.4-.75.6-.3.1-.6.1-.9 0l-15.15-3.4v7.95h20.9c4.633 0 8.85-1.133 12.65-3.4 3.233-1.9 5.95-4.35 8.15-7.35l-6.35-7.65c-.2-.3-.3-.65-.3-1.05 0-.267.1-.55.3-.85l8.85-11.35h-10.3c-.4 0-.75-.15-1.05-.45s-.45-.65-.45-1.05c0-4.8.1-9.6.3-14.4-.3-.4-.55-.85-.75-1.35h-.15c-.867-1.867-1.45-3.233-1.75-4.1-.1 0-.15-.05-.15-.15-.867-1.4-1.7-2.633-2.5-3.7-5.1-4.7-14.383-3.467-27.85 3.7v29.75l15.75-5.15c.3-.2.6-.2.9 0m-79.4-67.5l3.95-7.35-7.65 4.4-5.15-4.55v7.2l-9.9 5.45h9.9v11.05l6.05-11.05h8.95l-6.15-5.15m-44.5-19.3l2.05 6.05-7.65 5.75h10l1.95 5.45 1.6-5.45h8.7l-7.4-5.15 2.1-8.25-6.5 5.3-4.85-3.7m25.75-24.6l8.55-.15 2.8 12.1 5.45-12.4 14.3-.45-10.6-7.8 5-11.9-10.3 8.65-10.75-8.25 2.95 14-7.4 6.2m65.75 113.6h-.6v19.9l14.3-4.45c.1-.1.2-.15.3-.15.267-.267.6-.35 1-.25l15.2 3.5c-.1-5.7 0-11.483.3-17.35l-14.9 5c-.3.1-.6.1-.9 0-.367 0-.7-.05-1-.15l-13.7-6.05M160 427.55c-3.133-.8-5.383.083-6.75 2.65l3.4 9.85c.767-1.067 1.733-1.85 2.9-2.35h.15c1-.5 2.183-.6 3.55-.3l-3.25-9.85m70.3-16.65c-1.667-2.067-3.683-3.1-6.05-3.1-1.567 0-3.033.533-4.4 1.6-.6.4-1.15.95-1.65 1.65-1.167 1.267-1.95 2.683-2.35 4.25-.1 0-.15.05-.15.15-.5 1.2-.75 2.433-.75 3.7v.15c-.167 3.033.633 5.683 2.4 7.95.667.967 1.5 1.75 2.5 2.35.967.6 2.033.9 3.2.9 2.467 0 4.683-1.083 6.65-3.25h-.15c1.867-2.367 2.9-5.067 3.1-8.1.1-3.233-.683-5.983-2.35-8.25m4.25 36.55c.4.2.8.25 1.2.15.3-.2.6-.45.9-.75.167-.4.217-.75.15-1.05-.2-.4-.45-.683-.75-.85-2.367-1.4-4.583-2.533-6.65-3.4h.15c-1.467-.7-2.833-1.25-4.1-1.65h.15c-.533-.233-.983-.367-1.35-.4-.6-.3-1.183-.5-1.75-.6l.15.15-1.2-.3c-.5-.2-.9-.3-1.2-.3h-.1l.1 2.95c.1 0 .2.05.3.15h.15l1.2.3c.4.1.833.25 1.3.45h.15c.3.067.7.2 1.2.4 1.067.3 2.3.8 3.7 1.5 2.033.867 4.133 1.95 6.3 3.25M234 399.7c.167.6.5.983 1 1.15.4.1.85.017 1.35-.25.367-.5.6-.9.7-1.2.3-.6.25-1.083-.15-1.45-1.867-3.367-4.217-5.15-7.05-5.35h-.6c-1.767 0-3.733.5-5.9 1.5-.367.2-.6.5-.7.9-.2.567-.2 1.1 0 1.6.2.4.583.7 1.15.9.4.1.9.05 1.5-.15 1.367-.8 2.683-1.2 3.95-1.2h.3c1.467.3 2.95 1.483 4.45 3.55m50.8-8.7c-.6-.2-1.183-.4-1.75-.6l-29.6-5.75h-1.2c-.4 0-.8-.05-1.2-.15h-1.75l-8.7 45.25v.3l-3.4 15.9c1.6.1 2.933-.1 4-.6 15.7-8.733 26.55-9.9 32.55-3.5.1 0 .15.05.15.15.9 1.167 1.833 2.533 2.8 4.1v.15c.1.3.25.6.45.9a361.734 361.734 0 014.85-42.9c.1-.567.2-1.1.3-1.6.3-1.667.65-3.233 1.05-4.7 0-.4.05-.75.15-1.05v-.45c.367-1.867.8-3.683 1.3-5.45m-30.4 6.15c.133-.4.383-.683.75-.85 5.467-2.633 9.9-1.75 13.3 2.65.233.3.333.667.3 1.1-.067.4-.25.733-.55 1-.333.233-.7.333-1.1.3-.433-.067-.767-.25-1-.55-2.5-3.1-5.717-3.7-9.65-1.8-.367.2-.75.233-1.15.1-.4-.167-.683-.433-.85-.8-.2-.367-.217-.75-.05-1.15m5.7 13.8c-.533 4.933-2.8 10.9-6.8 17.9h8.8c.4 0 .75.15 1.05.45s.45.65.45 1.05-.15.75-.45 1.05-.65.45-1.05.45h-11.45c-.367 0-.683-.117-.95-.35a1.24 1.24 0 01-.5-.9c-.067-.367 0-.7.2-1 4.533-7.567 7.1-13.9 7.7-19 .067-.433.267-.767.6-1 .3-.267.667-.383 1.1-.35.4.067.733.267 1 .6.233.3.333.667.3 1.1m-5.95-40.15h1.05c11.6 1.2 21.917 2.967 30.95 5.3H286.6c.467.1.95.2 1.45.3.7-2.633 1.433-5.183 2.2-7.65a653.724 653.724 0 01-5.15-3.25 200.534 200.534 0 00-6.5-3.35 60.88 60.88 0 00-10.75-4c-12.667-3.733-26.167-3.983-40.5-.75-.4 2.367-.75 4.733-1.05 7.1a80.47 80.47 0 00-.7 5.6c1.567-.1 3.183-.15 4.85-.15l23.7.85m47.9-71.9h-.15c-3.733-2.233-7.517-4.1-11.35-5.6h-.15a428.17 428.17 0 00-8.55 21.05 418.742 418.742 0 00-13.1 41 59.5 59.5 0 0110.9 4 470.782 470.782 0 0111-32.7c3.5-9.333 7.3-18.583 11.4-27.75z" fill="#fff"/>
      <g>
        <path d="M178.7 500.25c1 .167 2.05.283 3.15.35" fill="none" stroke="#595959" stroke-linecap="round" stroke-linejoin="round"/>
      </g>
    </g>
  </switch>
</svg>
