<svg xmlns="http://www.w3.org/2000/svg" viewBox="69 282 750 230">
  <switch>
    <g>
      <path d="M121.85 318.5c-2.567 0-5.767.35-9.6 1.05-3.533.867-7.117 2.383-10.75 4.55-3.533 2.467-6.617 6.05-9.25 10.75-2.367 4.833-3.65 11.367-3.85 19.6v17.25c0 5.3-.833 9.467-2.5 12.5-1.767 3.067-3.833 5.283-6.2 6.65-2.267 1.567-4.233 2.5-5.9 2.8-1.667.6-2.6.8-2.8.6v17.65c.2 0 1.133.2 2.8.6 1.667.5 3.633 1.433 5.9 2.8 2.367 1.567 4.433 3.783 6.2 6.65 1.667 3.133 2.5 7.25 2.5 12.35v19.75c.2 8.267 1.483 14.75 3.85 19.45 2.633 4.8 5.717 8.433 9.25 10.9 3.633 2.367 7.217 3.983 10.75 4.85 3.833.7 7.033 1.05 9.6 1.05 1.367 0 2.5-.1 3.4-.3l1.15-.3v-15.15h-2.8c-1.667 0-3.867-.4-6.6-1.2-2.767-.867-5.283-2.933-7.55-6.2-2.133-3.033-3.3-7.75-3.5-14.15v-23.85c0-5.1-.883-9.367-2.65-12.8-1.667-3.433-3.533-6.083-5.6-7.95-2.267-2.067-4.133-3.45-5.6-4.15l-2.65-1.05v-.55l2.65-.9c1.467-.9 3.333-2.367 5.6-4.4 2.067-1.867 3.933-4.533 5.6-8 1.767-3.433 2.65-7.65 2.65-12.65v-21.2c.2-6.5 1.367-11.317 3.5-14.45 2.267-3.033 4.783-5 7.55-5.9 2.733-.867 4.933-1.3 6.6-1.3h2.8V318.8h-1.15c-.9-.2-2.033-.3-3.4-.3m191.4 1.5a230.022 230.022 0 016.2-10.75c.2-.3.25-.6.15-.9-.1-.4-.25-.7-.45-.9l-.15-.15c-5.1-4.2-10.317-7.833-15.65-10.9-3.9-2.333-7.817-4.3-11.75-5.9-15.333-5.867-31.75-7.033-49.25-3.5-.267.1-.45.25-.55.45-.3.067-.45.25-.45.55-2.533 6.367-4.767 13.033-6.7 20-1 3.567-1.917 7.217-2.75 10.95h.15L230 327.2c-.1.1-.15.25-.15.45a401.03 401.03 0 00-5.3 28.15c-.4 2.733-.8 5.483-1.2 8.25-.267 1.967-.5 3.983-.7 6.05h-1.35c-.1 0-.2.05-.3.15-1.567.267-3.183.4-4.85.4H216c-11.8 1.5-17.783 4.25-17.95 8.25-.7 4.233 4.7 8.067 16.2 11.5.667.2 1.45.4 2.35.6l.9.3c.967.2 2.083.45 3.35.75-.3 3.533-.533 7.117-.7 10.75 0 .967-.05 2-.15 3.1-1.5.567-2.833 1.65-4 3.25a9.57 9.57 0 00-1.9 2.5l-4.45-1.5-1.9 5.6 4.4 1.5c-.1.567-.15 1.2-.15 1.9-.167 3.733.817 7.017 2.95 9.85 1.4 1.967 3.033 3.3 4.9 4 0 1.767.05 3.583.15 5.45-.3-.1-.55-.15-.75-.15-.9-.2-1.683-.3-2.35-.3h-.45c-4.733-.1-8.367 1.417-10.9 4.55h-.15c-.9 1.2-1.733 2.633-2.5 4.3v.15c-.3.967-.9 2.383-1.8 4.25-1.367 3.067-2.983 5.183-4.85 6.35-.1 0-.15.05-.15.15-1.467.5-2.833.8-4.1.9h-.15c-2.367.167-4.283-.633-5.75-2.4-1.967-2.333-3.45-5.567-4.45-9.7-.967-4.233-.867-7.483.3-9.75 1.4-2.633 2.833-4.15 4.3-4.55 1.267-.3 2.733.483 4.4 2.35l.15.15c.9.9 1.35 2.617 1.35 5.15 0 1.5-.2 2.933-.6 4.3-.2.4-.2.783 0 1.15.2.3.5.55.9.75.367.1.75.05 1.15-.15.3-.2.55-.483.75-.85.5-1.7.75-3.433.75-5.2 0-3.633-.75-6.033-2.25-7.2l-.15-.15c-2.533-2.733-4.933-3.817-7.2-3.25-2.267.4-4.333 2.467-6.2 6.2-1.567 2.733-1.717 6.667-.45 11.8 1.1 4.6 2.783 8.233 5.05 10.9 2.133 2.533 4.883 3.667 8.25 3.4 1.667-.1 3.433-.55 5.3-1.35h.15c2.333-1.467 4.383-4.067 6.15-7.8.9-1.867 1.5-3.3 1.8-4.3.667-1.467 1.4-2.683 2.2-3.65v-.15c2.067-2.367 4.967-3.5 8.7-3.4h.45c.567 0 1.2.1 1.9.3h.3c.1 0 .2.05.3.15h.75c.267 6.767.7 13.583 1.3 20.45l-10.6-1.15c-.4 0-.7.1-.9.3-.4.2-.6.483-.6.85-.167.3-.167.65 0 1.05l4.6 8.85L188 500.2l-20.9-60.85c-.1-.1-.15-.2-.15-.3l-4.3-13.15c-.1-.167-.25-.35-.45-.55-.167-.2-.35-.3-.55-.3-5.5-1.767-9.283-.3-11.35 4.4-.2.3-.2.65 0 1.05l4.55 13.55c0 .1.05.2.15.3l19.1 54.7.05.1c1.1.367 2.233.667 3.4.9.367.067.75.133 1.15.2 1 .167 2.05.283 3.15.35h.55l-21.65-60.1c.967-.4 2.2-.25 3.7.45l20.6 59.65h6.65l21.8-23.7-9.45 23.7h40.1v-7.95l15.15 3.4c.3.1.6.1.9 0 .3-.2.55-.4.75-.6.1-.3.15-.583.15-.85-.1-6.9 0-13.933.3-21.1 0-.4-.1-.683-.3-.85-.2-.3-.45-.5-.75-.6-.3-.2-.6-.2-.9 0l-15.75 5.15v-29.75c13.467-7.167 22.75-8.4 27.85-3.7.8 1.067 1.633 2.3 2.5 3.7 0 .1.05.15.15.15.3.867.883 2.233 1.75 4.1h.15c.2.5.45.95.75 1.35-.2 4.8-.3 9.6-.3 14.4 0 .4.15.75.45 1.05s.65.45 1.05.45h10.3l-8.85 11.35c-.2.3-.3.583-.3.85 0 .4.1.75.3 1.05l6.35 7.65c.2-.3.4-.583.6-.85.167-.3.35-.6.55-.9l.6-.9-.05-.05-4.95-6 9.85-12.8c.2-.3.3-.65.3-1.05 0-.367-.15-.65-.45-.85-.267-.3-.6-.45-1-.45h-11.8c0-3.133.05-6.283.15-9.45 1.067 1.1 2.2 1.883 3.4 2.35 1.767.9 3.733 1.3 5.9 1.2h.15c3.233.2 6.117-.983 8.65-3.55h.15c2.367-2.733 4.233-6.517 5.6-11.35v-.1c1.1-5.033.767-8.917-1-11.65-2.067-3.633-4.283-5.6-6.65-5.9-2.467-.6-5.067.533-7.8 3.4-1.567 1.467-2.35 4.017-2.35 7.65 0 1.667.15 3.333.45 5 .1.4.333.7.7.9.3.3.65.4 1.05.3.4-.1.7-.3.9-.6.3-.4.4-.8.3-1.2-.3-1.467-.45-2.933-.45-4.4 0-2.667.483-4.533 1.45-5.6 1.867-1.867 3.583-2.7 5.15-2.5 1.667.4 3.25 1.867 4.75 4.4 1.267 2.367 1.45 5.567.55 9.6h.15c-1.267 4.2-2.933 7.533-5 10v.15c-1.967 1.867-4.167 2.7-6.6 2.5h-.15c-1.667.1-3.2-.2-4.6-.9h-.15c-1.567-.767-3.033-2.083-4.4-3.95.7-16.1 2.417-31.967 5.15-47.6.1-.6.2-1.133.3-1.6.3-1.667.65-3.25 1.05-4.75v-.15c2.133 0 4.05-.183 5.75-.55 11.567-1.1 17.45-3.717 17.65-7.85v-.1c.8-3.933-4.55-7.817-16.05-11.65l-.15-.15c-.6-.1-1.283-.25-2.05-.45-.2-.1-.4-.15-.6-.15.8-2.933 1.583-5.733 2.35-8.4l.15-.15c.5-1.467.95-2.833 1.35-4.1 1.967-6.7 4.167-13.083 6.6-19.15l.1-.2c2.933-7.7 6.2-14.967 9.8-21.8l2.05-3.5m-11.35-21.1h.15c-4.1 9.167-7.9 18.417-11.4 27.75a470.782 470.782 0 00-11 32.7 59.5 59.5 0 00-10.9-4 418.742 418.742 0 0113.1-41 428.17 428.17 0 018.55-21.05h.15c3.833 1.5 7.617 3.367 11.35 5.6m-46.7 71.9h-1.05l-23.7-.85c-1.667 0-3.283.05-4.85.15.167-1.867.4-3.733.7-5.6.3-2.367.65-4.733 1.05-7.1 14.333-3.233 27.833-2.983 40.5.75a60.88 60.88 0 0110.75 4 200.534 200.534 0 016.5 3.35c1.567 1 3.283 2.083 5.15 3.25-.767 2.467-1.5 5.017-2.2 7.65-.5-.1-.983-.2-1.45-.3H286.15c-9.033-2.333-19.35-4.1-30.95-5.3m27.85 19.6c.567.2 1.15.4 1.75.6a68.608 68.608 0 00-1.3 5.45v.45c-.1.3-.15.65-.15 1.05-.4 1.467-.75 3.033-1.05 4.7-.1.5-.2 1.033-.3 1.6a361.734 361.734 0 00-4.85 42.9c-.2-.3-.35-.6-.45-.9v-.15c-.967-1.567-1.9-2.933-2.8-4.1 0-.1-.05-.15-.15-.15-6-6.4-16.85-5.233-32.55 3.5-1.067.5-2.4.7-4 .6l3.4-15.9v-.3l8.7-45.25h1.75c.4.1.8.15 1.2.15h1.2l29.6 5.75M235 400.85c-.5-.167-.833-.55-1-1.15-1.5-2.067-2.983-3.25-4.45-3.55h-.3c-1.267 0-2.583.4-3.95 1.2-.6.2-1.1.25-1.5.15-.567-.2-.95-.5-1.15-.9-.2-.5-.2-1.033 0-1.6.1-.4.333-.7.7-.9 2.167-1 4.133-1.5 5.9-1.5h.6c2.833.2 5.183 1.983 7.05 5.35.4.367.45.85.15 1.45-.1.3-.333.7-.7 1.2-.5.267-.95.35-1.35.25m.75 46.75c-.4.1-.8.05-1.2-.15-2.167-1.3-4.267-2.383-6.3-3.25-1.4-.7-2.633-1.2-3.7-1.5-.5-.2-.9-.333-1.2-.4h-.15c-.467-.2-.9-.35-1.3-.45l-1.2-.3h-.15c-.1-.1-.2-.15-.3-.15l-.1-2.95h.1c.3 0 .7.1 1.2.3l1.2.3-.15-.15c.567.1 1.15.3 1.75.6.367.033.817.167 1.35.4h-.15c1.267.4 2.633.95 4.1 1.65h-.15c2.067.867 4.283 2 6.65 3.4.3.167.55.45.75.85.067.3.017.65-.15 1.05-.3.3-.6.55-.9.75m-11.5-39.8c2.367 0 4.383 1.033 6.05 3.1 1.667 2.267 2.45 5.017 2.35 8.25-.2 3.033-1.233 5.733-3.1 8.1h.15c-1.967 2.167-4.183 3.25-6.65 3.25-1.167 0-2.233-.3-3.2-.9-1-.6-1.833-1.383-2.5-2.35-1.767-2.267-2.567-4.917-2.4-7.95v-.15c0-1.267.25-2.5.75-3.7 0-.1.05-.15.15-.15.4-1.567 1.183-2.983 2.35-4.25.5-.7 1.05-1.25 1.65-1.65 1.367-1.067 2.833-1.6 4.4-1.6m-71 22.4c1.367-2.567 3.617-3.45 6.75-2.65l3.25 9.85c-1.367-.3-2.55-.2-3.55.3h-.15c-1.167.5-2.133 1.283-2.9 2.35l-3.4-9.85m74.1 44.05h.6l13.7 6.05c.3.1.633.15 1 .15.3.1.6.1.9 0l14.9-5c-.3 5.867-.4 11.65-.3 17.35l-15.2-3.5c-.4-.1-.733-.017-1 .25-.1 0-.2.05-.3.15l-14.3 4.45v-19.9m25.95-45.4c4-7 6.267-12.967 6.8-17.9.033-.433-.067-.8-.3-1.1a1.584 1.584 0 00-1-.6c-.433-.033-.8.083-1.1.35-.333.233-.533.567-.6 1-.6 5.1-3.167 11.433-7.7 19-.2.3-.267.633-.2 1 .033.367.2.667.5.9.267.233.583.35.95.35h11.45c.4 0 .75-.15 1.05-.45s.45-.65.45-1.05-.15-.75-.45-1.05-.65-.45-1.05-.45h-8.8m1.85-32.55c-.367.167-.617.45-.75.85-.167.4-.15.783.05 1.15.167.367.45.633.85.8.4.133.783.1 1.15-.1 3.933-1.9 7.15-1.3 9.65 1.8.233.3.567.483 1 .55.4.033.767-.067 1.1-.3.3-.267.483-.6.55-1 .033-.433-.067-.8-.3-1.1-3.4-4.4-7.833-5.283-13.3-2.65m80.75-76.75c-3.633-.7-6.817-1.05-9.55-1.05-1.367 0-2.5.1-3.4.3h-1.15v15.05h2.8c1.867 0 4.167.433 6.9 1.3 2.767.9 5.267 2.867 7.5 5.9 1.967 3.133 3.05 7.95 3.25 14.45v21.2c.2 5 1.083 9.217 2.65 12.65 1.667 3.467 3.633 6.133 5.9 8 2.067 2.033 3.933 3.5 5.6 4.4 1.567.6 2.4.9 2.5.9v.55c-.1 0-.933.35-2.5 1.05-1.667.7-3.533 2.083-5.6 4.15-2.267 1.867-4.233 4.517-5.9 7.95-1.567 3.433-2.45 7.7-2.65 12.8V453c-.2 6.4-1.283 11.117-3.25 14.15-2.233 3.267-4.733 5.333-7.5 6.2-2.733.8-5.033 1.2-6.9 1.2h-2.8v15.15l1.15.3c.9.2 2.033.3 3.4.3 2.733 0 5.917-.35 9.55-1.05 3.733-.867 7.417-2.483 11.05-4.85 3.567-2.467 6.567-6.1 9-10.9 2.567-4.7 3.85-11.183 3.85-19.45V434.3c0-5.1.933-9.217 2.8-12.35 1.667-2.867 3.633-5.083 5.9-6.65 2.233-1.367 4.283-2.3 6.15-2.8l2.55-.6v-17.65c0 .2-.85 0-2.55-.6-1.867-.3-3.917-1.233-6.15-2.8-2.267-1.367-4.233-3.583-5.9-6.65-1.867-3.033-2.8-7.2-2.8-12.5v-17.25c0-8.233-1.283-14.767-3.85-19.6-2.433-4.7-5.433-8.283-9-10.75-3.633-2.167-7.317-3.683-11.05-4.55m127 80c.6.533.9 1.35.9 2.45v6.55h17.95v-16.4c0-3.567-.817-6.167-2.45-7.8-1.633-1.7-4.267-2.55-7.9-2.55h-61.55v16.85h9.85v91.05h19.9v-43.6h34.5v-16.85h-34.5v-30.6h20.85c1.067 0 1.883.3 2.45.9m-30.4-71.65c0-1.4-.333-2.417-1-3.05-.633-.633-1.633-.95-3-.95h-15.3v6.55h10.2c.433 0 .767.117 1 .35s.35.55.35.95v21.5c-.033 1.533-.3 2.75-.8 3.65-.5.933-1.167 1.617-2 2.05-.833.4-1.733.6-2.7.6a5.522 5.522 0 01-2.7-.6c-.833-.4-1.5-1.1-2-2.1-.533-.967-.817-2.283-.85-3.95v-1.75h-7.75v2.45c.033 3.033.683 5.533 1.95 7.5 1.3 1.933 2.933 3.383 4.9 4.35 2.033.933 4.167 1.4 6.4 1.4s4.35-.467 6.35-1.4c2.033-.933 3.7-2.367 5-4.3 1.267-1.933 1.917-4.45 1.95-7.55v-25.7m25.2-4.3c-1.433-.3-2.8-.45-4.1-.45-2.733.033-5.15.55-7.25 1.55-2.1 1.033-3.767 2.45-5 4.25-1.2 1.767-1.8 3.8-1.8 6.1.033 2.167.517 4 1.45 5.5a13.405 13.405 0 003.65 3.85 31.264 31.264 0 004.8 2.75c1.7.8 3.3 1.55 4.8 2.25 1.5.733 2.717 1.517 3.65 2.35.967.867 1.467 1.883 1.5 3.05-.033 1.1-.333 2.017-.9 2.75-.533.733-1.267 1.3-2.2 1.7-.9.367-1.9.55-3 .55-1.467-.033-2.817-.3-4.05-.8-1.267-.467-2.35-1.033-3.25-1.7-.933-.667-1.65-1.233-2.15-1.7-.5-.5-.75-.767-.75-.8l-4.4 5.5.95 1c.633.633 1.567 1.383 2.8 2.25 1.233.833 2.75 1.583 4.55 2.25 1.8.633 3.867.983 6.2 1.05 2.967-.067 5.5-.65 7.6-1.75 2.067-1.133 3.667-2.633 4.8-4.5 1.067-1.867 1.617-3.933 1.65-6.2-.033-2.3-.533-4.233-1.5-5.8-.933-1.533-2.15-2.817-3.65-3.85s-3.1-1.917-4.8-2.65a252.59 252.59 0 00-4.8-2.15c-1.5-.633-2.717-1.367-3.65-2.2-.933-.8-1.433-1.8-1.5-3 .067-1.367.65-2.45 1.75-3.25 1.167-.833 2.65-1.25 4.45-1.25a8.8 8.8 0 012.7.4c.867.267 1.567.633 2.1 1.1.533.533.8 1.117.8 1.75v1.9h7.05v-3.9c-.033-1.533-.467-2.817-1.3-3.85-.8-1.067-1.85-1.933-3.15-2.6a18.29 18.29 0 00-4.05-1.45m46.55 2.45c-3.267-1.9-7-2.867-11.2-2.9-4.167.033-7.883 1-11.15 2.9-3.3 1.9-5.883 4.467-7.75 7.7-1.9 3.233-2.883 6.883-2.95 10.95.067 4.167 1.05 7.917 2.95 11.25 1.867 3.333 4.45 5.967 7.75 7.9 3.267 1.933 6.983 2.933 11.15 3 4.2-.067 7.933-1.067 11.2-3 3.267-1.933 5.85-4.567 7.75-7.9 1.9-3.333 2.867-7.083 2.9-11.25-.033-4.067-1-7.717-2.9-10.95-1.9-3.233-4.483-5.8-7.75-7.7m.7 11.35c1.2 2.133 1.817 4.567 1.85 7.3-.033 2.833-.65 5.367-1.85 7.6-1.233 2.233-2.883 4-4.95 5.3-2.067 1.3-4.383 1.95-6.95 1.95s-4.883-.65-6.95-1.95c-2.067-1.3-3.7-3.067-4.9-5.3-1.233-2.233-1.867-4.767-1.9-7.6.033-2.733.667-5.167 1.9-7.3 1.2-2.133 2.833-3.817 4.9-5.05 2.067-1.267 4.383-1.917 6.95-1.95 2.567.033 4.883.683 6.95 1.95 2.067 1.233 3.717 2.917 4.95 5.05m53.45 136.05c-1.067 0-1.883-.3-2.45-.9-.567-.533-.85-1.35-.85-2.45v-28.85c.033-5.833-.933-11.083-2.9-15.75-2.033-4.6-5.5-8.25-10.4-10.95-4.9-2.733-11.633-4.117-20.2-4.15-2.067 0-4.65.15-7.75.45a41.581 41.581 0 00-9.45 2.15c-3.1 1.033-5.717 2.633-7.85 4.8-2.133 2.133-3.25 4.983-3.35 8.55v8.25h17.95v-4.1c.067-1.433.717-2.517 1.95-3.25 1.167-.767 2.55-1.3 4.15-1.6 1.567-.233 2.967-.35 4.2-.35 4.967-.033 8.617 1.1 10.95 3.4 2.267 2.4 3.4 6.333 3.4 11.8v.6h-2.45c-2.567 0-5.783.133-9.65.4-3.8.267-7.783.883-11.95 1.85-4.2.933-8.15 2.367-11.85 4.3-3.667 1.933-6.667 4.5-9 7.7-2.267 3.167-3.45 7.167-3.55 12 .033 5.2 1.3 9.583 3.8 13.15 2.4 3.6 5.6 6.35 9.6 8.25 4.033 1.867 8.367 2.8 13 2.8 4.367-.1 8.05-.817 11.05-2.15 2.967-1.333 5.367-2.883 7.2-4.65 1.833-1.8 3.15-3.383 3.95-4.75.833-1.333 1.233-2.033 1.2-2.1h.25l-.05.9c0 .6-.017 1.383-.05 2.35 0 2.4.767 4.417 2.3 6.05s4.05 2.467 7.55 2.5h17.35v-16.25h-6.1m-51.6-6.95c.033-2.7.917-4.867 2.65-6.5 1.7-1.633 3.883-2.867 6.55-3.7 2.667-.767 5.483-1.3 8.45-1.6 2.967-.267 5.733-.4 8.3-.4h3.35v1.85c0 3.233-.767 6.383-2.3 9.45-1.5 3.1-3.55 5.667-6.15 7.7-2.633 2.067-5.683 3.133-9.15 3.2-3.967-.1-6.9-1.117-8.8-3.05-1.933-1.967-2.9-4.283-2.9-6.95m91.9-75.85c0-3.5-.833-5.867-2.5-7.1-1.633-1.233-4.233-1.817-7.8-1.75H570v16.4h6.1c1.067 0 1.883.283 2.45.85.567.533.85 1.367.85 2.5v88.15h19.3v-33.9h4.25c1.267-.067 2.567.083 3.9.45 1.333.3 2.433 1.117 3.3 2.45l12.9 24.3c1.367 2.733 2.95 4.55 4.75 5.45 1.733.867 4.183 1.283 7.35 1.25h14.3v-16.25h-5.2c-1.767.067-3.117-.133-4.05-.6-.967-.4-1.733-1.167-2.3-2.3l-8.75-16.75c-1.433-2.433-2.7-4.067-3.8-4.9-1.1-.833-1.667-1.2-1.7-1.1v-.4c0 .067.533-.333 1.6-1.2 1.067-.833 2.45-2.433 4.15-4.8l19.6-29.15h-21.45l-15.8 24.4c-.867 1.2-1.967 2-3.3 2.4-1.4.367-2.717.533-3.95.5h-5.8v-48.9m-41.75-59.85c.2-.233.517-.35.95-.35h2.55v-6.55h-7.6c-1.4 0-2.417.317-3.05.95-.667.633-1 1.65-1 3.05v19.35c0 .833.05 1.7.15 2.6.033.933.1 1.717.2 2.35.033.633.05.967.05 1h-.1c0-.033-.167-.367-.5-1-.367-.633-.817-1.417-1.35-2.35a48.932 48.932 0 00-1.65-2.6l-16-23.35h-7v34.3c0 .433-.117.75-.35.95-.2.233-.517.35-.95.35h-2.55v6.6h7.6c1.4 0 2.417-.317 3.05-.95.667-.633 1-1.667 1-3.1V342.8c0-.833-.05-1.717-.15-2.65-.067-.9-.133-1.667-.2-2.3s-.1-.967-.1-1h.15c0 .033.167.367.5 1 .367.667.817 1.45 1.35 2.35.533.9 1.083 1.767 1.65 2.6l16.05 23.3h6.95v-34.35c0-.4.117-.717.35-.95m46.2-5.75a18.29 18.29 0 00-4.05-1.45c-1.433-.3-2.8-.45-4.1-.45-2.733.033-5.15.55-7.25 1.55-2.1 1.033-3.767 2.45-5 4.25-1.2 1.767-1.8 3.8-1.8 6.1.033 2.167.517 4 1.45 5.5a13.405 13.405 0 003.65 3.85 31.264 31.264 0 004.8 2.75c1.7.8 3.3 1.55 4.8 2.25 1.5.733 2.717 1.517 3.65 2.35.967.867 1.467 1.883 1.5 3.05-.033 1.1-.333 2.017-.9 2.75-.533.733-1.267 1.3-2.2 1.7-.9.367-1.9.55-3 .55-1.467-.033-2.817-.3-4.05-.8-1.267-.467-2.35-1.033-3.25-1.7-.933-.667-1.65-1.233-2.15-1.7-.5-.5-.75-.767-.75-.8l-4.4 5.5.95 1c.633.633 1.567 1.383 2.8 2.25 1.233.833 2.75 1.583 4.55 2.25 1.8.633 3.867.983 6.2 1.05 2.967-.067 5.5-.65 7.6-1.75 2.067-1.133 3.667-2.633 4.8-4.5 1.067-1.867 1.617-3.933 1.65-6.2-.033-2.3-.533-4.233-1.5-5.8-.933-1.533-2.15-2.817-3.65-3.85s-3.1-1.917-4.8-2.65a252.59 252.59 0 00-4.8-2.15c-1.5-.633-2.717-1.367-3.65-2.2-.933-.8-1.433-1.8-1.5-3 .067-1.367.65-2.45 1.75-3.25 1.167-.833 2.65-1.25 4.45-1.25a8.8 8.8 0 012.7.4c.867.267 1.567.633 2.1 1.1.533.533.8 1.117.8 1.75v1.9h7.05v-3.9c-.033-1.533-.467-2.817-1.3-3.85-.8-1.067-1.85-1.933-3.15-2.6M705.55 337c-2-1.267-4.45-1.917-7.35-1.95-3.067.033-5.733.717-8 2.05-2.3 1.333-4.1 3.183-5.4 5.55-1.3 2.4-1.967 5.167-2 8.3.033 2.933.7 5.583 2 7.95s3.183 4.267 5.65 5.7c2.4 1.433 5.283 2.183 8.65 2.25 1.9-.033 3.6-.283 5.1-.75 1.5-.433 2.767-.95 3.8-1.55 1.067-.6 1.883-1.133 2.45-1.6.567-.433.85-.667.85-.7l-3.15-5.25c0 .033-.367.333-1.1.9-.733.533-1.75 1.083-3.05 1.65-1.267.533-2.717.817-4.35.85-1.533 0-2.95-.3-4.25-.9a8.612 8.612 0 01-3.25-2.75c-.867-1.233-1.4-2.733-1.6-4.5h20.95v-.5c.033-.333.067-.733.1-1.2.033-.433.05-.8.05-1.1 0-2.7-.517-5.133-1.55-7.3s-2.55-3.883-4.55-5.15m-7.35 3.9c1.6 0 2.933.567 4 1.7 1.067 1.1 1.65 2.567 1.75 4.4h-13.2c.433-1.9 1.3-3.4 2.6-4.5 1.3-1.067 2.917-1.6 4.85-1.6m-57.6 4.55v-3.55c0-1.3-.383-2.383-1.15-3.25-.767-.9-1.733-1.617-2.9-2.15a13.308 13.308 0 00-3.55-1.1c-1.233-.233-2.367-.35-3.4-.35-3.467.033-6.433.767-8.9 2.2-2.5 1.467-4.4 3.383-5.7 5.75-1.3 2.4-1.967 5.05-2 7.95.033 2.967.717 5.65 2.05 8.05 1.333 2.367 3.233 4.267 5.7 5.7 2.433 1.367 5.317 2.083 8.65 2.15 2.1-.067 3.933-.35 5.5-.85 1.6-.567 2.933-1.2 4-1.9 1.1-.733 1.933-1.367 2.5-1.9.533-.533.8-.817.8-.85l-3.15-5.2-.65.65c-.433.4-1.067.85-1.9 1.35-.8.567-1.75 1.05-2.85 1.45-1.067.4-2.25.617-3.55.65-1.667 0-3.217-.35-4.65-1.05-1.4-.7-2.55-1.75-3.45-3.15-.9-1.367-1.35-3.083-1.35-5.15 0-1.867.383-3.5 1.15-4.9.767-1.433 1.817-2.55 3.15-3.35 1.367-.8 2.917-1.217 4.65-1.25.633 0 1.283.083 1.95.25.667.167 1.233.433 1.7.8.467.333.7.783.7 1.35v1.65h6.65m14.5-17.6c0-1.367-.333-2.367-1-3-.633-.633-1.65-.95-3.05-.95h-7.2v6.4h2.4c.433 0 .75.1.95.3.233.233.35.567.35 1v34.5h7.55v-13.9c0-.733.033-1.417.1-2.05.067-.667.183-1.3.35-1.9.6-1.867 1.617-3.367 3.05-4.5 1.433-1.133 3.167-1.733 5.2-1.8 1.867.033 3.133.617 3.8 1.75.7 1.1 1.033 2.583 1 4.45v13.9c0 1.433.317 2.467.95 3.1s1.65.95 3.05.95h7.2v-6.35h-2.4c-.433 0-.75-.117-.95-.35-.233-.233-.35-.55-.35-.95V346.6c-.033-4-.95-6.933-2.75-8.8-1.833-1.833-4.433-2.75-7.8-2.75-1.767.033-3.35.333-4.75.9-1.367.6-2.533 1.35-3.5 2.25-.967.933-1.7 1.883-2.2 2.85h-.1l.05-.7c.033-.467.05-1.083.05-1.85v-10.65m64.75 138.65c0 .1-.95.833-2.85 2.2-1.867 1.433-4.433 2.85-7.7 4.25-3.267 1.367-6.967 2.1-11.1 2.2-3.967 0-7.617-.783-10.95-2.35-3.3-1.6-6.067-3.933-8.3-7-2.167-3.1-3.517-6.933-4.05-11.5h53.45c0-.033.033-.483.1-1.35.1-.833.167-1.817.2-2.95.1-1.067.15-2 .15-2.8 0-6.933-1.333-13.167-4-18.7-2.6-5.5-6.45-9.883-11.55-13.15-5.1-3.2-11.367-4.85-18.8-4.95-7.8.033-14.617 1.767-20.45 5.2-5.9 3.467-10.5 8.217-13.8 14.25-3.333 6.067-5.017 13.1-5.05 21.1.033 7.467 1.733 14.25 5.1 20.35 3.333 6.1 8.117 10.967 14.35 14.6 6.167 3.667 13.55 5.55 22.15 5.65 4.867-.033 9.2-.65 13-1.85 3.867-1.133 7.133-2.467 9.8-4 2.733-1.533 4.817-2.867 6.25-4 1.367-1.133 2.083-1.75 2.15-1.85l-8.1-13.35m-37.75-37.05c3.3-2.7 7.417-4.083 12.35-4.15 4.067.067 7.467 1.533 10.2 4.4 2.7 2.8 4.183 6.55 4.45 11.25h-33.6c1.067-4.9 3.267-8.733 6.6-11.5m83.95-7.8c0-3.267-.867-5.667-2.6-7.2-1.733-1.467-4.3-2.2-7.7-2.2H738.1v16.4h6.05c1.1 0 1.917.267 2.45.8.6.533.9 1.383.9 2.55v57.7h19.15V459c0-2.3.15-4.483.45-6.55.3-2.133.7-4.167 1.2-6.1 1.233-3.8 2.983-6.917 5.25-9.35 2.233-2.367 4.75-4.117 7.55-5.25 2.8-1.1 5.583-1.65 8.35-1.65 1.367 0 2.5.05 3.4.15.833.1 1.283.15 1.35.15v-18.95c-.067 0-.45-.05-1.15-.15-.733-.1-1.517-.15-2.35-.15-4 .033-7.633.917-10.9 2.65-3.267 1.767-6.083 4.133-8.45 7.1a33.27 33.27 0 00-5.3 10.1h-.3l.15-1.3c.067-.867.117-2.033.15-3.5v-4.55M751 335.95c-1.367.6-2.567 1.35-3.6 2.25-1 .967-1.767 2-2.3 3.1h-.1c-.667-2.067-1.733-3.617-3.2-4.65-1.5-1.067-3.4-1.6-5.7-1.6-1.567.033-3.017.367-4.35 1-1.3.6-2.417 1.4-3.35 2.4-.9.933-1.6 1.9-2.1 2.9h-.1v-.4c.033-.267.05-.567.05-.9v-.85c0-1.1-.333-1.933-1-2.5-.667-.6-1.667-.9-3-.9h-6.95v6.4h2.4c.4 0 .717.1.95.3.233.233.35.567.35 1v22.6h7.5v-13.35c0-.667.033-1.3.1-1.9.1-.667.217-1.3.35-1.9.333-1.3.817-2.467 1.45-3.5.667-1.067 1.5-1.9 2.5-2.5.967-.633 2.1-.967 3.4-1 1.167.033 2.05.317 2.65.85.6.533.983 1.267 1.15 2.2.2.933.3 1.95.3 3.05v18.05h7.55v-13.35c0-.667.033-1.333.1-2 .067-.633.183-1.25.35-1.85.3-1.267.767-2.433 1.4-3.5.667-1.033 1.5-1.85 2.5-2.45.967-.633 2.083-.967 3.35-1 1.7.067 2.833.65 3.4 1.75.533 1.133.783 2.583.75 4.35v14c0 1.433.317 2.467.95 3.1.667.633 1.7.95 3.1.95H769v-6.35h-2.35c-.4 0-.717-.117-.95-.35-.233-.233-.35-.55-.35-.95V346.6c0-3.967-.867-6.883-2.6-8.75-1.7-1.867-4.133-2.8-7.3-2.8-1.633.033-3.117.333-4.45.9m51.3 23.8h-2.4c-.433 0-.75-.117-.95-.35-.233-.233-.35-.55-.35-.95v-11.3c0-2.3-.383-4.35-1.15-6.15-.8-1.8-2.15-3.233-4.05-4.3-1.933-1.067-4.567-1.617-7.9-1.65-.833 0-1.85.067-3.05.2a18.35 18.35 0 00-3.7.8c-1.233.433-2.25 1.067-3.05 1.9-.833.833-1.283 1.95-1.35 3.35v3.2h7.05v-1.55c.033-.567.283-1 .75-1.3.467-.3 1.017-.5 1.65-.6.6-.1 1.15-.15 1.65-.15 1.933-.033 3.35.417 4.25 1.35.9.9 1.35 2.433 1.35 4.6v.25h-.95c-1.033 0-2.3.033-3.8.1-1.5.133-3.05.383-4.65.75a18 18 0 00-4.65 1.7 9.993 9.993 0 00-3.55 3c-.867 1.233-1.333 2.8-1.4 4.7.033 2.033.533 3.75 1.5 5.15s2.233 2.467 3.8 3.2c1.567.767 3.25 1.15 5.05 1.15 1.7-.067 3.15-.35 4.35-.85 1.167-.533 2.1-1.15 2.8-1.85.733-.7 1.25-1.317 1.55-1.85.333-.533.483-.8.45-.8h.15l-.05.35c0 .233-.017.533-.05.9 0 .933.3 1.717.9 2.35s1.6.967 3 1h6.8v-6.35m-21.55-5.25c.633-.633 1.483-1.117 2.55-1.45a14.859 14.859 0 013.3-.65c1.167-.1 2.25-.15 3.25-.15h1.3v.7c0 1.267-.3 2.5-.9 3.7a8.038 8.038 0 01-2.4 3.05c-1.033.8-2.233 1.217-3.6 1.25-1.533-.067-2.683-.467-3.45-1.2a3.84 3.84 0 01-1.1-2.75c0-1.033.35-1.867 1.05-2.5z" fill="#595959"/>
      <path d="M191.7 500.6h12.35l9.45-23.7-21.8 23.7m109.7-155.3l-.1.2c-2.433 6.067-4.633 12.45-6.6 19.15-.4 1.267-.85 2.633-1.35 4.1l-.15.15a635.523 635.523 0 00-2.35 8.4c.2 0 .4.05.6.15.767.2 1.45.35 2.05.45l.15.15c11.5 3.833 16.85 7.717 16.05 11.65v.1c-.2 4.133-6.083 6.75-17.65 7.85-1.7.367-3.617.55-5.75.55v.15c-.4 1.5-.75 3.083-1.05 4.75-.1.467-.2 1-.3 1.6a369.254 369.254 0 00-5.15 47.6c1.367 1.867 2.833 3.183 4.4 3.95h.15c1.4.7 2.933 1 4.6.9h.15c2.433.2 4.633-.633 6.6-2.5v-.15c2.067-2.467 3.733-5.8 5-10h-.15c.9-4.033.717-7.233-.55-9.6-1.5-2.533-3.083-4-4.75-4.4-1.567-.2-3.283.633-5.15 2.5-.967 1.067-1.45 2.933-1.45 5.6 0 1.467.15 2.933.45 4.4.1.4 0 .8-.3 1.2-.2.3-.5.5-.9.6-.4.1-.75 0-1.05-.3-.367-.2-.6-.5-.7-.9-.3-1.667-.45-3.333-.45-5 0-3.633.783-6.183 2.35-7.65 2.733-2.867 5.333-4 7.8-3.4 2.367.3 4.583 2.267 6.65 5.9 1.767 2.733 2.1 6.617 1 11.65v.1c-1.367 4.833-3.233 8.617-5.6 11.35h-.15c-2.533 2.567-5.417 3.75-8.65 3.55h-.15c-2.167.1-4.133-.3-5.9-1.2-1.2-.467-2.333-1.25-3.4-2.35-.1 3.167-.15 6.317-.15 9.45h11.8c.4 0 .733.15 1 .45.3.2.45.483.45.85 0 .4-.1.75-.3 1.05l-9.85 12.8 4.95 6 40.55-70.2c2.267-3.933 3.35-8.117 3.25-12.55.1-4.6-.933-8.767-3.1-12.5l-26.85-46.6m-69.5-26.35c.833-3.733 1.75-7.383 2.75-10.95l-51.5-.1c-4.533.1-8.717 1.183-12.55 3.25-3.933 2.167-6.967 5.2-9.1 9.1l-41.15 71.35c-2.433 3.833-3.6 8-3.5 12.5-.1 4.433 1.067 8.617 3.5 12.55l41 71.3c2.233 3.833 5.217 6.917 8.95 9.25 1.233.733 2.5 1.35 3.8 1.85l-19.1-54.7c-.1-.1-.15-.2-.15-.3l-4.55-13.55c-.2-.4-.2-.75 0-1.05 2.067-4.7 5.85-6.167 11.35-4.4.2 0 .383.1.55.3.2.2.35.383.45.55l4.3 13.15c0 .1.05.2.15.3L188 500.2l25.95-28.45-4.6-8.85c-.167-.4-.167-.75 0-1.05 0-.367.2-.65.6-.85.2-.2.5-.3.9-.3l10.6 1.15a429.41 429.41 0 01-1.3-20.45h-.75c-.1-.1-.2-.15-.3-.15h-.3c-.7-.2-1.333-.3-1.9-.3h-.45c-3.733-.1-6.633 1.033-8.7 3.4v.15c-.8.967-1.533 2.183-2.2 3.65-.3 1-.9 2.433-1.8 4.3-1.767 3.733-3.817 6.333-6.15 7.8h-.15c-1.867.8-3.633 1.25-5.3 1.35-3.367.267-6.117-.867-8.25-3.4-2.267-2.667-3.95-6.3-5.05-10.9-1.267-5.133-1.117-9.067.45-11.8 1.867-3.733 3.933-5.8 6.2-6.2 2.267-.567 4.667.517 7.2 3.25l.15.15c1.5 1.167 2.25 3.567 2.25 7.2 0 1.767-.25 3.5-.75 5.2-.2.367-.45.65-.75.85-.4.2-.783.25-1.15.15-.4-.2-.7-.45-.9-.75-.2-.367-.2-.75 0-1.15.4-1.367.6-2.8.6-4.3 0-2.533-.45-4.25-1.35-5.15l-.15-.15c-1.667-1.867-3.133-2.65-4.4-2.35-1.467.4-2.9 1.917-4.3 4.55-1.167 2.267-1.267 5.517-.3 9.75 1 4.133 2.483 7.367 4.45 9.7 1.467 1.767 3.383 2.567 5.75 2.4h.15c1.267-.1 2.633-.4 4.1-.9 0-.1.05-.15.15-.15 1.867-1.167 3.483-3.283 4.85-6.35.9-1.867 1.5-3.283 1.8-4.25v-.15c.767-1.667 1.6-3.1 2.5-4.3h.15c2.533-3.133 6.167-4.65 10.9-4.55h.45c.667 0 1.45.1 2.35.3.2 0 .45.05.75.15-.1-1.867-.15-3.683-.15-5.45-1.867-.7-3.5-2.033-4.9-4-2.133-2.833-3.117-6.117-2.95-9.85 0-.7.05-1.333.15-1.9l-4.4-1.5 1.9-5.6 4.45 1.5a9.57 9.57 0 011.9-2.5c1.167-1.6 2.5-2.683 4-3.25.1-1.1.15-2.133.15-3.1.167-3.633.4-7.217.7-10.75-1.267-.3-2.383-.55-3.35-.75l-.9-.3c-.9-.2-1.683-.4-2.35-.6-11.5-3.433-16.9-7.267-16.2-11.5.167-4 6.15-6.75 17.95-8.25h.15c1.667 0 3.283-.133 4.85-.4.1-.1.2-.15.3-.15h1.35c.2-2.067.433-4.083.7-6.05.4-2.767.8-5.517 1.2-8.25a401.03 401.03 0 015.3-28.15c0-.2.05-.35.15-.45l2.05-8.25h-.15m-61.15 41.55l-8.55.15 7.4-6.2-2.95-14 10.75 8.25 10.3-8.65-5 11.9 10.6 7.8-14.3.45-5.45 12.4-2.8-12.1m-32.25 30.8l-2.05-6.05 4.85 3.7 6.5-5.3-2.1 8.25 7.4 5.15h-8.7l-1.6 5.45-1.95-5.45h-10l7.65-5.75m46.4 5.9l-3.95 7.35 6.15 5.15h-8.95l-6.05 11.05V409.7h-9.9l9.9-5.45v-7.2l5.15 4.55 7.65-4.4z" fill="#dedede"/>
      <path d="M164.45 440.95c-1.5-.7-2.733-.85-3.7-.45l21.65 60.1h2.65l-20.6-59.65m95.9 31.1c.3.1.55.3.75.6.2.167.3.45.3.85-.3 7.167-.4 14.2-.3 21.1 0 .267-.05.55-.15.85-.2.2-.45.4-.75.6-.3.1-.6.1-.9 0l-15.15-3.4v7.95h20.9c4.633 0 8.85-1.133 12.65-3.4 3.233-1.9 5.95-4.35 8.15-7.35l-6.35-7.65c-.2-.3-.3-.65-.3-1.05 0-.267.1-.55.3-.85l8.85-11.35h-10.3c-.4 0-.75-.15-1.05-.45s-.45-.65-.45-1.05c0-4.8.1-9.6.3-14.4-.3-.4-.55-.85-.75-1.35h-.15c-.867-1.867-1.45-3.233-1.75-4.1-.1 0-.15-.05-.15-.15-.867-1.4-1.7-2.633-2.5-3.7-5.1-4.7-14.383-3.467-27.85 3.7v29.75l15.75-5.15c.3-.2.6-.2.9 0m-79.4-67.5l3.95-7.35-7.65 4.4-5.15-4.55v7.2l-9.9 5.45h9.9v11.05l6.05-11.05h8.95l-6.15-5.15m-44.5-19.3l2.05 6.05-7.65 5.75h10l1.95 5.45 1.6-5.45h8.7l-7.4-5.15 2.1-8.25-6.5 5.3-4.85-3.7m25.75-24.6l8.55-.15 2.8 12.1 5.45-12.4 14.3-.45-10.6-7.8 5-11.9-10.3 8.65-10.75-8.25 2.95 14-7.4 6.2m65.75 113.6h-.6v19.9l14.3-4.45c.1-.1.2-.15.3-.15.267-.267.6-.35 1-.25l15.2 3.5c-.1-5.7 0-11.483.3-17.35l-14.9 5c-.3.1-.6.1-.9 0-.367 0-.7-.05-1-.15l-13.7-6.05M160 427.55c-3.133-.8-5.383.083-6.75 2.65l3.4 9.85c.767-1.067 1.733-1.85 2.9-2.35h.15c1-.5 2.183-.6 3.55-.3l-3.25-9.85m70.3-16.65c-1.667-2.067-3.683-3.1-6.05-3.1-1.567 0-3.033.533-4.4 1.6-.6.4-1.15.95-1.65 1.65-1.167 1.267-1.95 2.683-2.35 4.25-.1 0-.15.05-.15.15-.5 1.2-.75 2.433-.75 3.7v.15c-.167 3.033.633 5.683 2.4 7.95.667.967 1.5 1.75 2.5 2.35.967.6 2.033.9 3.2.9 2.467 0 4.683-1.083 6.65-3.25h-.15c1.867-2.367 2.9-5.067 3.1-8.1.1-3.233-.683-5.983-2.35-8.25m4.25 36.55c.4.2.8.25 1.2.15.3-.2.6-.45.9-.75.167-.4.217-.75.15-1.05-.2-.4-.45-.683-.75-.85-2.367-1.4-4.583-2.533-6.65-3.4h.15c-1.467-.7-2.833-1.25-4.1-1.65h.15c-.533-.233-.983-.367-1.35-.4-.6-.3-1.183-.5-1.75-.6l.15.15-1.2-.3c-.5-.2-.9-.3-1.2-.3h-.1l.1 2.95c.1 0 .2.05.3.15h.15l1.2.3c.4.1.833.25 1.3.45h.15c.3.067.7.2 1.2.4 1.067.3 2.3.8 3.7 1.5 2.033.867 4.133 1.95 6.3 3.25M234 399.7c.167.6.5.983 1 1.15.4.1.85.017 1.35-.25.367-.5.6-.9.7-1.2.3-.6.25-1.083-.15-1.45-1.867-3.367-4.217-5.15-7.05-5.35h-.6c-1.767 0-3.733.5-5.9 1.5-.367.2-.6.5-.7.9-.2.567-.2 1.1 0 1.6.2.4.583.7 1.15.9.4.1.9.05 1.5-.15 1.367-.8 2.683-1.2 3.95-1.2h.3c1.467.3 2.95 1.483 4.45 3.55m50.8-8.7c-.6-.2-1.183-.4-1.75-.6l-29.6-5.75h-1.2c-.4 0-.8-.05-1.2-.15h-1.75l-8.7 45.25v.3l-3.4 15.9c1.6.1 2.933-.1 4-.6 15.7-8.733 26.55-9.9 32.55-3.5.1 0 .15.05.15.15.9 1.167 1.833 2.533 2.8 4.1v.15c.1.3.25.6.45.9a361.734 361.734 0 014.85-42.9c.1-.567.2-1.1.3-1.6.3-1.667.65-3.233 1.05-4.7 0-.4.05-.75.15-1.05v-.45c.367-1.867.8-3.683 1.3-5.45m-30.4 6.15c.133-.4.383-.683.75-.85 5.467-2.633 9.9-1.75 13.3 2.65.233.3.333.667.3 1.1-.067.4-.25.733-.55 1-.333.233-.7.333-1.1.3-.433-.067-.767-.25-1-.55-2.5-3.1-5.717-3.7-9.65-1.8-.367.2-.75.233-1.15.1-.4-.167-.683-.433-.85-.8-.2-.367-.217-.75-.05-1.15m5.7 13.8c-.533 4.933-2.8 10.9-6.8 17.9h8.8c.4 0 .75.15 1.05.45s.45.65.45 1.05-.15.75-.45 1.05-.65.45-1.05.45h-11.45c-.367 0-.683-.117-.95-.35a1.24 1.24 0 01-.5-.9c-.067-.367 0-.7.2-1 4.533-7.567 7.1-13.9 7.7-19 .067-.433.267-.767.6-1 .3-.267.667-.383 1.1-.35.4.067.733.267 1 .6.233.3.333.667.3 1.1m-5.95-40.15h1.05c11.6 1.2 21.917 2.967 30.95 5.3H286.6c.467.1.95.2 1.45.3.7-2.633 1.433-5.183 2.2-7.65a653.724 653.724 0 01-5.15-3.25 200.534 200.534 0 00-6.5-3.35 60.88 60.88 0 00-10.75-4c-12.667-3.733-26.167-3.983-40.5-.75-.4 2.367-.75 4.733-1.05 7.1a80.47 80.47 0 00-.7 5.6c1.567-.1 3.183-.15 4.85-.15l23.7.85m47.9-71.9h-.15c-3.733-2.233-7.517-4.1-11.35-5.6h-.15a428.17 428.17 0 00-8.55 21.05 418.742 418.742 0 00-13.1 41 59.5 59.5 0 0110.9 4 470.782 470.782 0 0111-32.7c3.5-9.333 7.3-18.583 11.4-27.75z" fill="#fff"/>
      <g>
        <path d="M178.7 500.25c1 .167 2.05.283 3.15.35" fill="none" stroke="#595959" stroke-linecap="round" stroke-linejoin="round"/>
      </g>
    </g>
  </switch>
</svg>
